<svg xmlns="http://www.w3.org/2000/svg" xmlns:xlink="http://www.w3.org/1999/xlink" id="Capa_1" x="0px" y="0px" width="647.728px" height="435.31px" viewBox="0 0 647.728 435.31" xml:space="preserve"><g>	<path fill="#B1132F" d="M217.355,197.836c-3.946-5.799-8.072-11.32-12.292-16.449c-4.23-5.143-8.349-9.844-12.244-13.969   c-3.698-3.922-7.276-7.609-10.628-10.979c-3.057-3.045-5.515-5.721-7.312-7.967c-4.027-4.973-7.526-9.424-10.714-13.605   c-3.132-4.102-5.592-8.359-7.319-12.676c-1.109-2.438-1.968-5.021-2.604-7.789c-0.638-2.746-0.959-5.635-0.959-8.604   c0-2.34,0.214-4.701,0.639-7.02c0.43-2.383,1.102-5.164,1.99-8.275l0.748-2.619l-25.017-7.332l-0.788,2.604   c-2.34,7.727-3.528,15.459-3.528,22.984c0,4.73,0.478,9.34,1.419,13.719c0.931,4.33,2.243,8.566,3.906,12.592l1.844,3.994v184.104   h25.958V171.514c3.703,4.094,8.197,8.746,13.429,13.904c7.569,7.461,14.913,16.564,21.833,27.043   c5.321,7.982,9.823,16.65,13.393,25.775c3.499,8.986,5.272,18.762,5.272,29.047c0,6.578-0.775,13.01-2.305,19.139   c-1.077,4.301-3.046,9.008-5.857,13.998c-2.803,4.971-6.627,9.68-11.37,13.994c-4.737,4.322-10.594,7.939-17.41,10.766   c-5.839,2.41-12.476,3.637-19.731,3.637c-1.123,0-2.266-0.027-3.424-0.084c-5.635-0.221-12.009-1.555-18.979-3.959   c-6.852-2.355-12.929-6.059-18.062-10.986c-2.896-2.904-5.464-6.664-7.594-11.148c-2.08-4.389-3.135-9.848-3.135-16.238   c0-3.281,0.278-6.828,0.828-10.521c0.531-3.66,1.58-7.732,3.114-12.135l0.909-2.602l-24.237-8.262l-0.877,2.598   c-3.78,11.17-5.699,21.797-5.699,31.607c0,9.674,1.687,18.375,5.011,25.857c3.317,7.455,7.757,13.996,13.204,19.432   c8.014,7.783,17.206,13.455,27.346,16.873c10.009,3.373,19.122,5.207,27.083,5.441c1.276,0.045,2.56,0.072,3.83,0.072   c10.857,0,20.801-1.82,29.551-5.4c9.694-3.973,18.108-9.074,25.014-15.158c6.916-6.107,12.565-13.004,16.785-20.508   c4.192-7.443,7.156-14.561,8.81-21.166c2.098-8.605,3.157-17.207,3.157-25.59c0-13.488-2.304-26.172-6.844-37.701   C229,217.834,223.568,207.268,217.355,197.836z"></path>	<path fill="#B1132F" d="M472.411,320.623c10.813,0,20.461-2.67,27.523-9.148c3.045,2.92,6.527,5.102,10.383,6.514   c4.586,1.697,9.494,2.561,14.588,2.561h42.27v-25.965h-2.738c-4.303,0-7.188-1.477-9.086-4.645   c-2.123-3.531-3.199-7.713-3.199-12.42v-85.697h-25.959v86.039c0.227,6.096,1.156,11.688,2.76,16.723h-4.047   c-4.281,0-7.162-1.52-9.07-4.787c-2.125-3.652-3.207-7.783-3.207-12.277v-85.697h-2.738h-0.193   c3.484-3.979,6.533-8.354,9.082-13.018l1.17-2.148l-19.508-13.738l-1.48,2.654c-2.986,5.336-7.912,10.686-14.645,15.9   c-6.959,5.385-13.873,10.914-20.553,16.443c-7.203,5.807-13.768,13.074-19.48,21.58c-5.857,8.723-8.824,19.518-8.824,32.078v30.391   c0,4.553,0.598,8.781,1.777,12.619h-17.08c1.477-4.76,2.227-10.244,2.227-16.381v-18.865c0-10.803-2.654-19.795-7.893-26.746   c-5.002-6.625-10.615-12.477-16.68-17.377c-4.594-3.895-9.604-7.74-14.838-11.379c-5.011-3.48-9.636-7.439-13.755-11.764   l-0.092-0.135v-27.756l-25.964-0.086v119.93c0,5.342,1.67,8.682,2.473,10.287c0.051,0.1,0.096,0.188,0.135,0.271h-3.361   c-4.699,0-7.673-1.492-9.356-4.68c-1.939-3.682-2.924-7.963-2.924-12.729v-85.354h-25.964v90.482c0,3.961-1.099,7.328-3.359,10.289   c-2.09,2.719-5.233,4.035-9.602,4.035c-4.291,0-7.283-1.377-9.152-4.223c-2.108-3.217-3.131-6.854-3.131-11.127v-89.457h-25.967   v89.457c0,5.299,0.856,10.479,2.544,15.395c1.69,4.971,4.223,9.424,7.522,13.209c3.285,3.775,7.305,6.865,11.938,9.174   c4.683,2.348,10.152,3.541,16.247,3.541c5.308,0,10.69-1.035,16.004-3.09c4.458-1.719,8.221-4.107,11.222-7.119   c6.876,5.414,14.93,8.16,23.98,8.16L472.411,320.623z M369.125,225.852l12.624,9.346c4.295,3.666,7.768,7.576,10.318,11.613   c2.461,3.902,3.932,9.217,4.363,15.785l-0.008,19.369c0,4.428-1.252,7.662-3.824,9.871c-2.703,2.305-5.584,3.434-8.801,3.434   c-4.659,0-8.161-1.473-10.712-4.49c-2.627-3.117-3.961-7.346-3.961-12.576V225.852z M486.661,279.568   c-0.199,4.156-1.375,8.01-3.494,11.334c-1.869,2.939-5.186,4.367-10.143,4.367c-2.748,0-5.342-1.115-7.92-3.402   c-2.482-2.215-3.688-5.451-3.688-9.902v-30.391c0-6.912,1.74-12.996,5.168-18.098c3.592-5.342,8.436-10.736,14.398-16.043   l5.678-4.537V279.568z"></path></g><g>	<g>		<path fill="#312E2A" d="M226.4,111.07v5.336h-10.61v34.541h-6.542v-34.541H198.58v-5.336H226.4z"></path>		<path fill="#312E2A" d="M251.989,150.947l-9.178-15.951h-4.992v15.951h-6.539V111.07h13.768c3.06,0,5.65,0.543,7.772,1.613    c2.123,1.07,3.709,2.504,4.763,4.301c1.05,1.799,1.579,3.803,1.579,6.021c0,2.604-0.756,4.965-2.268,7.082    c-1.513,2.127-3.834,3.568-6.97,4.338l9.866,16.521H251.989z M237.818,129.775h7.229c2.447,0,4.291-0.605,5.536-1.834    c1.241-1.227,1.865-2.867,1.865-4.936c0-2.063-0.612-3.682-1.836-4.844c-1.224-1.17-3.079-1.756-5.564-1.756h-7.229V129.775z"></path>		<path fill="#312E2A" d="M289.85,142.801h-16.693l-2.868,8.146h-6.827l14.285-39.934h7.573l14.285,39.934h-6.884L289.85,142.801z     M288.017,137.465l-6.485-18.533l-6.538,18.533H288.017z"></path>		<path fill="#312E2A" d="M338.445,111.07l-14.975,39.877h-7.576l-15.03-39.877h7.002l11.816,33.164l11.873-33.164H338.445z"></path>		<path fill="#312E2A" d="M348.711,116.35v11.705h13.767v5.338h-13.767v12.219h15.485v5.336H342.17v-39.934h22.026v5.336H348.711z"></path>		<path fill="#312E2A" d="M377.048,145.668h13.478v5.279h-20.019V111.07h6.541V145.668z"></path>		<path fill="#312E2A" d="M433.209,111.07v5.336h-10.615v34.541h-6.537v-34.541h-10.672v-5.336H433.209z"></path>		<path fill="#312E2A" d="M446.032,148.736c-3.117-1.74-5.584-4.166-7.4-7.283c-1.814-3.119-2.725-6.627-2.725-10.529    s0.91-7.398,2.725-10.5c1.816-3.096,4.283-5.516,7.4-7.256s6.531-2.611,10.242-2.611c3.748,0,7.178,0.871,10.297,2.611    c3.117,1.74,5.574,4.16,7.371,7.256c1.799,3.102,2.695,6.598,2.695,10.5s-0.896,7.41-2.695,10.529    c-1.797,3.117-4.254,5.543-7.371,7.283c-3.119,1.74-6.549,2.611-10.297,2.611C452.563,151.348,449.149,150.477,446.032,148.736z     M463.329,143.865c2.064-1.207,3.68-2.934,4.848-5.166c1.164-2.24,1.75-4.83,1.75-7.775c0-2.947-0.586-5.529-1.75-7.746    c-1.168-2.219-2.783-3.918-4.848-5.102c-2.066-1.191-4.418-1.783-7.055-1.783c-2.641,0-4.992,0.592-7.057,1.783    c-2.064,1.184-3.682,2.883-4.848,5.102c-1.17,2.217-1.75,4.799-1.75,7.746c0,2.945,0.58,5.535,1.75,7.775    c1.166,2.232,2.783,3.959,4.848,5.166c2.064,1.197,4.416,1.803,7.057,1.803C458.911,145.668,461.262,145.063,463.329,143.865z"></path>	</g></g><g>	<polygon fill="#3A8244" points="523.143,161.449 538.844,145.398 554.895,161.449 538.844,177.148  "></polygon></g></svg>